<mxfile host="65bd71144e">
    <diagram id="0Rk23NjgDeTyCK7oHo9y" name="Page-1">
        <mxGraphModel dx="207" dy="-1590" grid="1" gridSize="10" guides="1" tooltips="1" connect="1" arrows="1" fold="1" page="1" pageScale="1" pageWidth="850" pageHeight="1100" math="0" shadow="0">
            <root>
                <mxCell id="0"/>
                <mxCell id="1" parent="0"/>
                <mxCell id="25" value="" style="html=1;shadow=0;dashed=0;shape=mxgraph.bootstrap.rect;fillColor=#222222;strokeColor=none;whiteSpace=wrap;rounded=0;fontSize=12;fontColor=#000000;align=center;movable=1;resizable=1;rotatable=1;deletable=1;editable=1;locked=0;connectable=1;" parent="1" vertex="1">
                    <mxGeometry x="1130" y="3325" width="1060" height="63" as="geometry"/>
                </mxCell>
                <mxCell id="26" value="Atlas" style="html=1;shadow=0;dashed=0;fillColor=#000000;strokeColor=none;shape=mxgraph.bootstrap.rect;fontColor=#FFFFFF;fontSize=14;whiteSpace=wrap;movable=1;resizable=1;rotatable=1;deletable=1;editable=1;locked=0;connectable=1;" parent="25" vertex="1">
                    <mxGeometry width="105.99971512260032" height="40" as="geometry"/>
                </mxCell>
                <mxCell id="27" value="" style="strokeWidth=1;html=1;shadow=0;dashed=0;shape=mxgraph.android.rrect;rSize=0;fillColor=#444444;strokeColor=none;movable=1;resizable=1;rotatable=1;deletable=1;editable=1;locked=0;connectable=1;" parent="25" vertex="1">
                    <mxGeometry x="0.0028487739969868925" y="43" width="1059.9971512260029" height="20" as="geometry"/>
                </mxCell>
                <mxCell id="28" value="" style="strokeWidth=1;html=1;shadow=0;dashed=0;shape=mxgraph.android.anchor;fontStyle=1;fontColor=#ffffff;movable=1;resizable=1;rotatable=1;deletable=1;editable=1;locked=0;connectable=1;" parent="27" vertex="1">
                    <mxGeometry x="21.840600643392914" width="65.72564753618376" height="20" as="geometry"/>
                </mxCell>
                <mxCell id="29" value="Bike Test RFP" style="strokeWidth=1;html=1;shadow=0;dashed=0;shape=mxgraph.android.anchor;fontStyle=0;fontColor=#808080;strokeColor=#000000;movable=1;resizable=1;rotatable=1;deletable=1;editable=1;locked=0;connectable=1;" parent="27" vertex="1">
                    <mxGeometry x="-0.002847125649751092" width="182.27342317821052" height="20" as="geometry"/>
                </mxCell>
                <mxCell id="30" value="Project 2" style="strokeWidth=1;html=1;shadow=0;dashed=0;shape=mxgraph.android.anchor;fontStyle=0;fontColor=#808080;strokeColor=#000000;movable=1;resizable=1;rotatable=1;deletable=1;editable=1;locked=0;connectable=1;" parent="27" vertex="1">
                    <mxGeometry x="173.9771528743503" width="182.27342317821052" height="20" as="geometry"/>
                </mxCell>
                <mxCell id="31" value="" style="shape=mxgraph.sysml.x;fontColor=#FFFFFF;strokeColor=#FFFFFF;aspect=fixed;" parent="27" vertex="1">
                    <mxGeometry x="194.99715122600298" y="5" width="10" height="10" as="geometry"/>
                </mxCell>
                <mxCell id="32" value="" style="shape=mxgraph.sysml.x;fontColor=#FFFFFF;strokeColor=#FFFFFF;aspect=fixed;" parent="27" vertex="1">
                    <mxGeometry x="368.997151226003" y="5" width="10" height="10" as="geometry"/>
                </mxCell>
                <mxCell id="33" value="Structures" style="html=1;shadow=0;dashed=0;shape=mxgraph.bootstrap.rect;fillColor=none;strokeColor=none;fontColor=#808080;spacingRight=30;whiteSpace=wrap;movable=1;resizable=1;rotatable=1;deletable=1;editable=1;locked=0;connectable=1;" parent="25" vertex="1">
                    <mxGeometry x="105.99971512260032" width="119.24967951292534" height="40" as="geometry"/>
                </mxCell>
                <mxCell id="34" value="" style="strokeWidth=1;html=1;shadow=0;dashed=0;shape=mxgraph.android.rrect;rSize=0;fillColor=#FF0000;strokeColor=none;movable=1;resizable=1;rotatable=1;deletable=1;editable=1;locked=0;connectable=1;" parent="25" vertex="1">
                    <mxGeometry x="0.0028487739970159964" y="40" width="100" height="2" as="geometry"/>
                </mxCell>
                <mxCell id="35" value="" style="shape=image;verticalLabelPosition=bottom;labelBackgroundColor=default;verticalAlign=top;aspect=fixed;imageAspect=0;image=data:image/svg+xml,PHN2ZyB4bWxucz0iaHR0cDovL3d3dy53My5vcmcvMjAwMC9zdmciIHZpZXdCb3g9IjAgMCA1MTIgNTEyIj48cGF0aCBkPSJNNDA2LjUgMzk5LjZDMzg3LjQgMzUyLjkgMzQxLjUgMzIwIDI4OCAzMjBsLTY0IDBjLTUzLjUgMC05OS40IDMyLjktMTE4LjUgNzkuNkM2OS45IDM2Mi4yIDQ4IDMxMS43IDQ4IDI1NkM0OCAxNDEuMSAxNDEuMSA0OCAyNTYgNDhzMjA4IDkzLjEgMjA4IDIwOGMwIDU1LjctMjEuOSAxMDYuMi01Ny41IDE0My42em0tNDAuMSAzMi43QzMzNC40IDQ1Mi40IDI5Ni42IDQ2NCAyNTYgNDY0cy03OC40LTExLjYtMTEwLjUtMzEuN2M3LjMtMzYuNyAzOS43LTY0LjMgNzguNS02NC4zbDY0IDBjMzguOCAwIDcxLjIgMjcuNiA3OC41IDY0LjN6TTI1NiA1MTJBMjU2IDI1NiAwIDEgMCAyNTYgMGEyNTYgMjU2IDAgMSAwIDAgNTEyem0wLTI3MmE0MCA0MCAwIDEgMSAwLTgwIDQwIDQwIDAgMSAxIDAgODB6bS04OC00MGE4OCA4OCAwIDEgMCAxNzYgMCA4OCA4OCAwIDEgMCAtMTc2IDB6IiBmaWxsPSIjOTk5OTk5Ii8+PC9zdmc+;" parent="25" vertex="1">
                    <mxGeometry x="985" y="12.5" width="20" height="20" as="geometry"/>
                </mxCell>
                <mxCell id="36" value="" style="shape=image;verticalLabelPosition=bottom;labelBackgroundColor=default;verticalAlign=top;aspect=fixed;imageAspect=0;image=data:image/svg+xml,PHN2ZyB4bWxucz0iaHR0cDovL3d3dy53My5vcmcvMjAwMC9zdmciIHZpZXdCb3g9IjAgMCA1MTIgNTEyIj48cGF0aCBkPSJNMzc3LjkgMTA1LjlMNTAwLjcgMjI4LjdjNy4yIDcuMiAxMS4zIDE3LjEgMTEuMyAyNy4zcy00LjEgMjAuMS0xMS4zIDI3LjNMMzc3LjkgNDA2LjFjLTYuNCA2LjQtMTUgOS45LTI0IDkuOWMtMTguNyAwLTMzLjktMTUuMi0zMy45LTMzLjlsMC02Mi4xLTEyOCAwYy0xNy43IDAtMzItMTQuMy0zMi0zMmwwLTY0YzAtMTcuNyAxNC4zLTMyIDMyLTMybDEyOCAwIDAtNjIuMWMwLTE4LjcgMTUuMi0zMy45IDMzLjktMzMuOWM5IDAgMTcuNiAzLjYgMjQgOS45ek0xNjAgOTZMOTYgOTZjLTE3LjcgMC0zMiAxNC4zLTMyIDMybDAgMjU2YzAgMTcuNyAxNC4zIDMyIDMyIDMybDY0IDBjMTcuNyAwIDMyIDE0LjMgMzIgMzJzLTE0LjMgMzItMzIgMzJsLTY0IDBjLTUzIDAtOTYtNDMtOTYtOTZMMCAxMjhDMCA3NSA0MyAzMiA5NiAzMmw2NCAwYzE3LjcgMCAzMiAxNC4zIDMyIDMycy0xNC4zIDMyLTMyIDMyeiIgZmlsbD0iIzk5OTk5OSIvPjwvc3ZnPg==;" parent="25" vertex="1">
                    <mxGeometry x="1025" y="12.5" width="20" height="20" as="geometry"/>
                </mxCell>
                <mxCell id="37" value="" style="shape=table;startSize=0;container=1;collapsible=0;childLayout=tableLayout;fontSize=13;align=left;spacingLeft=5;spacing=0;" parent="1" vertex="1">
                    <mxGeometry x="1180" y="3446.5" width="790" height="90" as="geometry"/>
                </mxCell>
                <mxCell id="38" value="" style="shape=tableRow;horizontal=0;startSize=0;swimlaneHead=0;swimlaneBody=0;strokeColor=inherit;top=0;left=0;bottom=0;right=0;collapsible=0;dropTarget=0;fillColor=none;points=[[0,0.5],[1,0.5]];portConstraint=eastwest;fontSize=13;align=left;spacingLeft=5;spacing=0;" parent="37" vertex="1">
                    <mxGeometry width="790" height="30" as="geometry"/>
                </mxCell>
                <mxCell id="39" style="shape=partialRectangle;html=1;whiteSpace=wrap;connectable=0;strokeColor=inherit;overflow=hidden;fillColor=#660000;top=0;left=0;bottom=0;right=0;pointerEvents=1;fontSize=13;align=left;spacingLeft=25;spacing=0;fontColor=#FFFFFF;fontStyle=1" parent="38" vertex="1">
                    <mxGeometry width="25" height="30" as="geometry">
                        <mxRectangle width="25" height="30" as="alternateBounds"/>
                    </mxGeometry>
                </mxCell>
                <mxCell id="40" value="Structure" style="shape=partialRectangle;html=1;whiteSpace=wrap;connectable=0;strokeColor=inherit;overflow=hidden;fillColor=#660000;top=0;left=0;bottom=0;right=0;pointerEvents=1;fontSize=13;align=left;spacingLeft=25;spacing=0;fontColor=#FFFFFF;fontStyle=1" parent="38" vertex="1">
                    <mxGeometry x="25" width="145" height="30" as="geometry">
                        <mxRectangle width="145" height="30" as="alternateBounds"/>
                    </mxGeometry>
                </mxCell>
                <mxCell id="41" value="Description" style="shape=partialRectangle;html=1;whiteSpace=wrap;connectable=0;strokeColor=inherit;overflow=hidden;fillColor=#660000;top=0;left=0;bottom=0;right=0;pointerEvents=1;fontSize=13;align=left;spacingLeft=5;spacing=0;fontColor=#FFFFFF;fontStyle=1" parent="38" vertex="1">
                    <mxGeometry x="170" width="190" height="30" as="geometry">
                        <mxRectangle width="190" height="30" as="alternateBounds"/>
                    </mxGeometry>
                </mxCell>
                <mxCell id="42" value="Shared With" style="shape=partialRectangle;html=1;whiteSpace=wrap;connectable=0;strokeColor=inherit;overflow=hidden;fillColor=#660000;top=0;left=0;bottom=0;right=0;pointerEvents=1;fontSize=13;align=left;spacingLeft=5;spacing=0;fontColor=#FFFFFF;fontStyle=1" parent="38" vertex="1">
                    <mxGeometry x="360" width="110" height="30" as="geometry">
                        <mxRectangle width="110" height="30" as="alternateBounds"/>
                    </mxGeometry>
                </mxCell>
                <mxCell id="43" value="Created" style="shape=partialRectangle;html=1;whiteSpace=wrap;connectable=0;strokeColor=inherit;overflow=hidden;fillColor=#660000;top=0;left=0;bottom=0;right=0;pointerEvents=1;fontSize=13;align=left;spacingLeft=5;spacing=0;fontColor=#FFFFFF;fontStyle=1" parent="38" vertex="1">
                    <mxGeometry x="470" width="140" height="30" as="geometry">
                        <mxRectangle width="140" height="30" as="alternateBounds"/>
                    </mxGeometry>
                </mxCell>
                <mxCell id="44" value="Updated" style="shape=partialRectangle;html=1;whiteSpace=wrap;connectable=0;strokeColor=inherit;overflow=hidden;fillColor=#660000;top=0;left=0;bottom=0;right=0;pointerEvents=1;fontSize=13;align=left;spacingLeft=5;spacing=0;fontColor=#FFFFFF;fontStyle=1" parent="38" vertex="1">
                    <mxGeometry x="610" width="180" height="30" as="geometry">
                        <mxRectangle width="180" height="30" as="alternateBounds"/>
                    </mxGeometry>
                </mxCell>
                <mxCell id="45" value="" style="shape=tableRow;horizontal=0;startSize=0;swimlaneHead=0;swimlaneBody=0;strokeColor=inherit;top=0;left=0;bottom=0;right=0;collapsible=0;dropTarget=0;fillColor=none;points=[[0,0.5],[1,0.5]];portConstraint=eastwest;fontSize=13;align=left;spacingLeft=5;spacing=0;" parent="37" vertex="1">
                    <mxGeometry y="30" width="790" height="30" as="geometry"/>
                </mxCell>
                <mxCell id="46" style="shape=partialRectangle;html=1;whiteSpace=wrap;connectable=0;strokeColor=inherit;overflow=hidden;fillColor=none;top=0;left=0;bottom=0;right=0;pointerEvents=1;fontSize=13;align=left;spacingLeft=64;spacing=0;" parent="45" vertex="1">
                    <mxGeometry width="25" height="30" as="geometry">
                        <mxRectangle width="25" height="30" as="alternateBounds"/>
                    </mxGeometry>
                </mxCell>
                <mxCell id="47" value="Bike Test RFP" style="shape=partialRectangle;html=1;whiteSpace=wrap;connectable=0;strokeColor=inherit;overflow=hidden;fillColor=none;top=0;left=0;bottom=0;right=0;pointerEvents=1;fontSize=13;align=left;spacingLeft=15;spacing=0;" parent="45" vertex="1">
                    <mxGeometry x="25" width="145" height="30" as="geometry">
                        <mxRectangle width="145" height="30" as="alternateBounds"/>
                    </mxGeometry>
                </mxCell>
                <mxCell id="48" value="First Project" style="shape=partialRectangle;html=1;whiteSpace=wrap;connectable=0;strokeColor=inherit;overflow=hidden;fillColor=none;top=0;left=0;bottom=0;right=0;pointerEvents=1;fontSize=13;align=left;spacingLeft=5;spacing=0;" parent="45" vertex="1">
                    <mxGeometry x="170" width="190" height="30" as="geometry">
                        <mxRectangle width="190" height="30" as="alternateBounds"/>
                    </mxGeometry>
                </mxCell>
                <mxCell id="49" style="shape=partialRectangle;html=1;whiteSpace=wrap;connectable=0;strokeColor=inherit;overflow=hidden;fillColor=none;top=0;left=0;bottom=0;right=0;pointerEvents=1;fontSize=13;align=left;spacingLeft=5;spacing=0;" parent="45" vertex="1">
                    <mxGeometry x="360" width="110" height="30" as="geometry">
                        <mxRectangle width="110" height="30" as="alternateBounds"/>
                    </mxGeometry>
                </mxCell>
                <mxCell id="50" value="dd-mm-yy hh:mm" style="shape=partialRectangle;html=1;whiteSpace=wrap;connectable=0;strokeColor=inherit;overflow=hidden;fillColor=none;top=0;left=0;bottom=0;right=0;pointerEvents=1;fontSize=13;align=left;spacingLeft=5;spacing=0;" parent="45" vertex="1">
                    <mxGeometry x="470" width="140" height="30" as="geometry">
                        <mxRectangle width="140" height="30" as="alternateBounds"/>
                    </mxGeometry>
                </mxCell>
                <mxCell id="51" value="dd-mm-yy hh:mm" style="shape=partialRectangle;html=1;whiteSpace=wrap;connectable=0;strokeColor=inherit;overflow=hidden;fillColor=none;top=0;left=0;bottom=0;right=0;pointerEvents=1;fontSize=13;align=left;spacingLeft=5;spacing=0;" parent="45" vertex="1">
                    <mxGeometry x="610" width="180" height="30" as="geometry">
                        <mxRectangle width="180" height="30" as="alternateBounds"/>
                    </mxGeometry>
                </mxCell>
                <mxCell id="52" value="" style="shape=tableRow;horizontal=0;startSize=0;swimlaneHead=0;swimlaneBody=0;strokeColor=inherit;top=0;left=0;bottom=0;right=0;collapsible=0;dropTarget=0;fillColor=none;points=[[0,0.5],[1,0.5]];portConstraint=eastwest;fontSize=13;align=left;spacingLeft=5;spacing=0;" parent="37" vertex="1">
                    <mxGeometry y="60" width="790" height="30" as="geometry"/>
                </mxCell>
                <mxCell id="53" style="shape=partialRectangle;html=1;whiteSpace=wrap;connectable=0;strokeColor=inherit;overflow=hidden;fillColor=none;top=0;left=0;bottom=0;right=0;pointerEvents=1;fontSize=13;align=left;spacingLeft=64;spacing=0;" parent="52" vertex="1">
                    <mxGeometry width="25" height="30" as="geometry">
                        <mxRectangle width="25" height="30" as="alternateBounds"/>
                    </mxGeometry>
                </mxCell>
                <mxCell id="54" value="Project 2" style="shape=partialRectangle;html=1;whiteSpace=wrap;connectable=0;strokeColor=inherit;overflow=hidden;fillColor=none;top=0;left=0;bottom=0;right=0;pointerEvents=1;fontSize=13;align=left;spacingLeft=15;spacing=0;" parent="52" vertex="1">
                    <mxGeometry x="25" width="145" height="30" as="geometry">
                        <mxRectangle width="145" height="30" as="alternateBounds"/>
                    </mxGeometry>
                </mxCell>
                <mxCell id="55" value="Another Project Structure" style="shape=partialRectangle;html=1;whiteSpace=wrap;connectable=0;strokeColor=inherit;overflow=hidden;fillColor=none;top=0;left=0;bottom=0;right=0;pointerEvents=1;fontSize=13;align=left;spacingLeft=5;spacing=0;" parent="52" vertex="1">
                    <mxGeometry x="170" width="190" height="30" as="geometry">
                        <mxRectangle width="190" height="30" as="alternateBounds"/>
                    </mxGeometry>
                </mxCell>
                <mxCell id="56" style="shape=partialRectangle;html=1;whiteSpace=wrap;connectable=0;strokeColor=inherit;overflow=hidden;fillColor=none;top=0;left=0;bottom=0;right=0;pointerEvents=1;fontSize=13;align=left;spacingLeft=5;spacing=0;" parent="52" vertex="1">
                    <mxGeometry x="360" width="110" height="30" as="geometry">
                        <mxRectangle width="110" height="30" as="alternateBounds"/>
                    </mxGeometry>
                </mxCell>
                <mxCell id="57" value="dd-mm-yy hh:mm" style="shape=partialRectangle;html=1;whiteSpace=wrap;connectable=0;strokeColor=inherit;overflow=hidden;fillColor=none;top=0;left=0;bottom=0;right=0;pointerEvents=1;fontSize=13;align=left;spacingLeft=5;spacing=0;" parent="52" vertex="1">
                    <mxGeometry x="470" width="140" height="30" as="geometry">
                        <mxRectangle width="140" height="30" as="alternateBounds"/>
                    </mxGeometry>
                </mxCell>
                <mxCell id="58" value="dd-mm-yy hh:mm" style="shape=partialRectangle;html=1;whiteSpace=wrap;connectable=0;strokeColor=inherit;overflow=hidden;fillColor=none;top=0;left=0;bottom=0;right=0;pointerEvents=1;fontSize=13;align=left;spacingLeft=5;spacing=0;" parent="52" vertex="1">
                    <mxGeometry x="610" width="180" height="30" as="geometry">
                        <mxRectangle width="180" height="30" as="alternateBounds"/>
                    </mxGeometry>
                </mxCell>
                <mxCell id="59" value="&lt;h1 style=&quot;margin-top: 0px;&quot;&gt;Inventory&lt;/h1&gt;" style="text;html=1;whiteSpace=wrap;overflow=hidden;rounded=0;" parent="1" vertex="1">
                    <mxGeometry x="1130" y="3280" width="270" height="41" as="geometry"/>
                </mxCell>
                <mxCell id="60" value="" style="rounded=0;whiteSpace=wrap;html=1;strokeColor=#660000;aspect=fixed;" parent="1" vertex="1">
                    <mxGeometry x="1187" y="3425.5" width="10" height="10" as="geometry"/>
                </mxCell>
                <mxCell id="61" value="" style="rounded=0;whiteSpace=wrap;html=1;strokeColor=#660000;aspect=fixed;" parent="1" vertex="1">
                    <mxGeometry x="1187" y="3487" width="10" height="10" as="geometry"/>
                </mxCell>
                <mxCell id="62" value="" style="rounded=0;whiteSpace=wrap;html=1;strokeColor=#660000;aspect=fixed;" parent="1" vertex="1">
                    <mxGeometry x="1187" y="3518.5" width="10" height="10" as="geometry"/>
                </mxCell>
                <mxCell id="63" value="Action" style="html=1;shadow=0;dashed=0;shape=mxgraph.bootstrap.rrect;rSize=5;strokeColor=none;strokeWidth=1;fillColor=#660000;fontColor=#ffffff;whiteSpace=wrap;align=left;verticalAlign=middle;fontStyle=0;fontSize=12;spacingLeft=10;spacingRight=20;" parent="1" vertex="1">
                    <mxGeometry x="1220" y="3416.5" width="125" height="25" as="geometry"/>
                </mxCell>
                <mxCell id="64" value="" style="shape=triangle;direction=south;fillColor=#ffffff;strokeColor=none;perimeter=none;" parent="63" vertex="1">
                    <mxGeometry x="1" y="0.5" width="10" height="5" relative="1" as="geometry">
                        <mxPoint x="-17" y="-2.5" as="offset"/>
                    </mxGeometry>
                </mxCell>
                <mxCell id="65" value="&lt;font style=&quot;font-size: 10px;&quot;&gt;DG&lt;/font&gt;" style="rounded=1;whiteSpace=wrap;html=1;arcSize=50;strokeColor=none;strokeWidth=1;fillColor=#4C0099;fontColor=#FFFFFF;whiteSpace=wrap;align=left;verticalAlign=middle;spacingLeft=0;fontStyle=1;fontSize=10;spacing=10;" parent="1" vertex="1">
                    <mxGeometry x="1560" y="3483.5" width="33" height="17" as="geometry"/>
                </mxCell>
                <mxCell id="66" value="&lt;font style=&quot;font-size: 10px;&quot;&gt;LM&lt;/font&gt;" style="rounded=1;whiteSpace=wrap;html=1;arcSize=50;strokeColor=none;strokeWidth=1;fillColor=#4D4D4D;fontColor=#FFFFFF;whiteSpace=wrap;align=left;verticalAlign=middle;spacingLeft=0;fontStyle=1;fontSize=10;spacing=10;" parent="1" vertex="1">
                    <mxGeometry x="1597" y="3483.5" width="33" height="17" as="geometry"/>
                </mxCell>
                <mxCell id="111" value="Structures" style="text;html=1;strokeColor=none;fillColor=none;align=left;verticalAlign=middle;whiteSpace=wrap;rounded=0;fontColor=#999999;" vertex="1" parent="1">
                    <mxGeometry x="1140" y="3390" width="60" height="30" as="geometry"/>
                </mxCell>
                <mxCell id="112" value="Export Templates" style="text;html=1;strokeColor=none;fillColor=none;align=left;verticalAlign=middle;whiteSpace=wrap;rounded=0;fontColor=#999999;" vertex="1" parent="1">
                    <mxGeometry x="1140" y="3767" width="210" height="30" as="geometry"/>
                </mxCell>
                <mxCell id="113" value="Custom Records" style="text;html=1;strokeColor=none;fillColor=none;align=left;verticalAlign=middle;whiteSpace=wrap;rounded=0;fontColor=#999999;" vertex="1" parent="1">
                    <mxGeometry x="1140" y="3570" width="210" height="30" as="geometry"/>
                </mxCell>
                <mxCell id="114" value="" style="shape=table;startSize=0;container=1;collapsible=0;childLayout=tableLayout;fontSize=13;align=left;spacingLeft=5;spacing=0;" vertex="1" parent="1">
                    <mxGeometry x="1180" y="3630" width="790" height="90" as="geometry"/>
                </mxCell>
                <mxCell id="115" value="" style="shape=tableRow;horizontal=0;startSize=0;swimlaneHead=0;swimlaneBody=0;strokeColor=inherit;top=0;left=0;bottom=0;right=0;collapsible=0;dropTarget=0;fillColor=none;points=[[0,0.5],[1,0.5]];portConstraint=eastwest;fontSize=13;align=left;spacingLeft=5;spacing=0;" vertex="1" parent="114">
                    <mxGeometry width="790" height="30" as="geometry"/>
                </mxCell>
                <mxCell id="116" style="shape=partialRectangle;html=1;whiteSpace=wrap;connectable=0;strokeColor=inherit;overflow=hidden;fillColor=#660000;top=0;left=0;bottom=0;right=0;pointerEvents=1;fontSize=13;align=left;spacingLeft=25;spacing=0;fontColor=#FFFFFF;fontStyle=1" vertex="1" parent="115">
                    <mxGeometry width="25" height="30" as="geometry">
                        <mxRectangle width="25" height="30" as="alternateBounds"/>
                    </mxGeometry>
                </mxCell>
                <mxCell id="117" value="Record" style="shape=partialRectangle;html=1;whiteSpace=wrap;connectable=0;strokeColor=inherit;overflow=hidden;fillColor=#660000;top=0;left=0;bottom=0;right=0;pointerEvents=1;fontSize=13;align=left;spacingLeft=25;spacing=0;fontColor=#FFFFFF;fontStyle=1" vertex="1" parent="115">
                    <mxGeometry x="25" width="145" height="30" as="geometry">
                        <mxRectangle width="145" height="30" as="alternateBounds"/>
                    </mxGeometry>
                </mxCell>
                <mxCell id="118" value="Description" style="shape=partialRectangle;html=1;whiteSpace=wrap;connectable=0;strokeColor=inherit;overflow=hidden;fillColor=#660000;top=0;left=0;bottom=0;right=0;pointerEvents=1;fontSize=13;align=left;spacingLeft=5;spacing=0;fontColor=#FFFFFF;fontStyle=1" vertex="1" parent="115">
                    <mxGeometry x="170" width="190" height="30" as="geometry">
                        <mxRectangle width="190" height="30" as="alternateBounds"/>
                    </mxGeometry>
                </mxCell>
                <mxCell id="119" value="Shared With" style="shape=partialRectangle;html=1;whiteSpace=wrap;connectable=0;strokeColor=inherit;overflow=hidden;fillColor=#660000;top=0;left=0;bottom=0;right=0;pointerEvents=1;fontSize=13;align=left;spacingLeft=5;spacing=0;fontColor=#FFFFFF;fontStyle=1" vertex="1" parent="115">
                    <mxGeometry x="360" width="110" height="30" as="geometry">
                        <mxRectangle width="110" height="30" as="alternateBounds"/>
                    </mxGeometry>
                </mxCell>
                <mxCell id="120" value="Created" style="shape=partialRectangle;html=1;whiteSpace=wrap;connectable=0;strokeColor=inherit;overflow=hidden;fillColor=#660000;top=0;left=0;bottom=0;right=0;pointerEvents=1;fontSize=13;align=left;spacingLeft=5;spacing=0;fontColor=#FFFFFF;fontStyle=1" vertex="1" parent="115">
                    <mxGeometry x="470" width="140" height="30" as="geometry">
                        <mxRectangle width="140" height="30" as="alternateBounds"/>
                    </mxGeometry>
                </mxCell>
                <mxCell id="121" value="Updated" style="shape=partialRectangle;html=1;whiteSpace=wrap;connectable=0;strokeColor=inherit;overflow=hidden;fillColor=#660000;top=0;left=0;bottom=0;right=0;pointerEvents=1;fontSize=13;align=left;spacingLeft=5;spacing=0;fontColor=#FFFFFF;fontStyle=1" vertex="1" parent="115">
                    <mxGeometry x="610" width="180" height="30" as="geometry">
                        <mxRectangle width="180" height="30" as="alternateBounds"/>
                    </mxGeometry>
                </mxCell>
                <mxCell id="122" value="" style="shape=tableRow;horizontal=0;startSize=0;swimlaneHead=0;swimlaneBody=0;strokeColor=inherit;top=0;left=0;bottom=0;right=0;collapsible=0;dropTarget=0;fillColor=none;points=[[0,0.5],[1,0.5]];portConstraint=eastwest;fontSize=13;align=left;spacingLeft=5;spacing=0;" vertex="1" parent="114">
                    <mxGeometry y="30" width="790" height="30" as="geometry"/>
                </mxCell>
                <mxCell id="123" style="shape=partialRectangle;html=1;whiteSpace=wrap;connectable=0;strokeColor=inherit;overflow=hidden;fillColor=none;top=0;left=0;bottom=0;right=0;pointerEvents=1;fontSize=13;align=left;spacingLeft=64;spacing=0;" vertex="1" parent="122">
                    <mxGeometry width="25" height="30" as="geometry">
                        <mxRectangle width="25" height="30" as="alternateBounds"/>
                    </mxGeometry>
                </mxCell>
                <mxCell id="124" value="RFP Section" style="shape=partialRectangle;html=1;whiteSpace=wrap;connectable=0;strokeColor=inherit;overflow=hidden;fillColor=none;top=0;left=0;bottom=0;right=0;pointerEvents=1;fontSize=13;align=left;spacingLeft=15;spacing=0;" vertex="1" parent="122">
                    <mxGeometry x="25" width="145" height="30" as="geometry">
                        <mxRectangle width="145" height="30" as="alternateBounds"/>
                    </mxGeometry>
                </mxCell>
                <mxCell id="125" value="RFP Section" style="shape=partialRectangle;html=1;whiteSpace=wrap;connectable=0;strokeColor=inherit;overflow=hidden;fillColor=none;top=0;left=0;bottom=0;right=0;pointerEvents=1;fontSize=13;align=left;spacingLeft=5;spacing=0;" vertex="1" parent="122">
                    <mxGeometry x="170" width="190" height="30" as="geometry">
                        <mxRectangle width="190" height="30" as="alternateBounds"/>
                    </mxGeometry>
                </mxCell>
                <mxCell id="126" style="shape=partialRectangle;html=1;whiteSpace=wrap;connectable=0;strokeColor=inherit;overflow=hidden;fillColor=none;top=0;left=0;bottom=0;right=0;pointerEvents=1;fontSize=13;align=left;spacingLeft=5;spacing=0;" vertex="1" parent="122">
                    <mxGeometry x="360" width="110" height="30" as="geometry">
                        <mxRectangle width="110" height="30" as="alternateBounds"/>
                    </mxGeometry>
                </mxCell>
                <mxCell id="127" value="dd-mm-yy hh:mm" style="shape=partialRectangle;html=1;whiteSpace=wrap;connectable=0;strokeColor=inherit;overflow=hidden;fillColor=none;top=0;left=0;bottom=0;right=0;pointerEvents=1;fontSize=13;align=left;spacingLeft=5;spacing=0;" vertex="1" parent="122">
                    <mxGeometry x="470" width="140" height="30" as="geometry">
                        <mxRectangle width="140" height="30" as="alternateBounds"/>
                    </mxGeometry>
                </mxCell>
                <mxCell id="128" value="dd-mm-yy hh:mm" style="shape=partialRectangle;html=1;whiteSpace=wrap;connectable=0;strokeColor=inherit;overflow=hidden;fillColor=none;top=0;left=0;bottom=0;right=0;pointerEvents=1;fontSize=13;align=left;spacingLeft=5;spacing=0;" vertex="1" parent="122">
                    <mxGeometry x="610" width="180" height="30" as="geometry">
                        <mxRectangle width="180" height="30" as="alternateBounds"/>
                    </mxGeometry>
                </mxCell>
                <mxCell id="129" value="" style="shape=tableRow;horizontal=0;startSize=0;swimlaneHead=0;swimlaneBody=0;strokeColor=inherit;top=0;left=0;bottom=0;right=0;collapsible=0;dropTarget=0;fillColor=none;points=[[0,0.5],[1,0.5]];portConstraint=eastwest;fontSize=13;align=left;spacingLeft=5;spacing=0;" vertex="1" parent="114">
                    <mxGeometry y="60" width="790" height="30" as="geometry"/>
                </mxCell>
                <mxCell id="130" style="shape=partialRectangle;html=1;whiteSpace=wrap;connectable=0;strokeColor=inherit;overflow=hidden;fillColor=none;top=0;left=0;bottom=0;right=0;pointerEvents=1;fontSize=13;align=left;spacingLeft=64;spacing=0;" vertex="1" parent="129">
                    <mxGeometry width="25" height="30" as="geometry">
                        <mxRectangle width="25" height="30" as="alternateBounds"/>
                    </mxGeometry>
                </mxCell>
                <mxCell id="131" value="Line Item" style="shape=partialRectangle;html=1;whiteSpace=wrap;connectable=0;strokeColor=inherit;overflow=hidden;fillColor=none;top=0;left=0;bottom=0;right=0;pointerEvents=1;fontSize=13;align=left;spacingLeft=15;spacing=0;" vertex="1" parent="129">
                    <mxGeometry x="25" width="145" height="30" as="geometry">
                        <mxRectangle width="145" height="30" as="alternateBounds"/>
                    </mxGeometry>
                </mxCell>
                <mxCell id="132" value="FTE, Capex, or Opex Item" style="shape=partialRectangle;html=1;whiteSpace=wrap;connectable=0;strokeColor=inherit;overflow=hidden;fillColor=none;top=0;left=0;bottom=0;right=0;pointerEvents=1;fontSize=13;align=left;spacingLeft=5;spacing=0;" vertex="1" parent="129">
                    <mxGeometry x="170" width="190" height="30" as="geometry">
                        <mxRectangle width="190" height="30" as="alternateBounds"/>
                    </mxGeometry>
                </mxCell>
                <mxCell id="133" style="shape=partialRectangle;html=1;whiteSpace=wrap;connectable=0;strokeColor=inherit;overflow=hidden;fillColor=none;top=0;left=0;bottom=0;right=0;pointerEvents=1;fontSize=13;align=left;spacingLeft=5;spacing=0;" vertex="1" parent="129">
                    <mxGeometry x="360" width="110" height="30" as="geometry">
                        <mxRectangle width="110" height="30" as="alternateBounds"/>
                    </mxGeometry>
                </mxCell>
                <mxCell id="134" value="dd-mm-yy hh:mm" style="shape=partialRectangle;html=1;whiteSpace=wrap;connectable=0;strokeColor=inherit;overflow=hidden;fillColor=none;top=0;left=0;bottom=0;right=0;pointerEvents=1;fontSize=13;align=left;spacingLeft=5;spacing=0;" vertex="1" parent="129">
                    <mxGeometry x="470" width="140" height="30" as="geometry">
                        <mxRectangle width="140" height="30" as="alternateBounds"/>
                    </mxGeometry>
                </mxCell>
                <mxCell id="135" value="dd-mm-yy hh:mm" style="shape=partialRectangle;html=1;whiteSpace=wrap;connectable=0;strokeColor=inherit;overflow=hidden;fillColor=none;top=0;left=0;bottom=0;right=0;pointerEvents=1;fontSize=13;align=left;spacingLeft=5;spacing=0;" vertex="1" parent="129">
                    <mxGeometry x="610" width="180" height="30" as="geometry">
                        <mxRectangle width="180" height="30" as="alternateBounds"/>
                    </mxGeometry>
                </mxCell>
                <mxCell id="136" value="" style="rounded=0;whiteSpace=wrap;html=1;strokeColor=#660000;aspect=fixed;" vertex="1" parent="1">
                    <mxGeometry x="1187" y="3609" width="10" height="10" as="geometry"/>
                </mxCell>
                <mxCell id="137" value="" style="rounded=0;whiteSpace=wrap;html=1;strokeColor=#660000;aspect=fixed;" vertex="1" parent="1">
                    <mxGeometry x="1187" y="3670.5" width="10" height="10" as="geometry"/>
                </mxCell>
                <mxCell id="138" value="" style="rounded=0;whiteSpace=wrap;html=1;strokeColor=#660000;aspect=fixed;" vertex="1" parent="1">
                    <mxGeometry x="1187" y="3702" width="10" height="10" as="geometry"/>
                </mxCell>
                <mxCell id="139" value="Action" style="html=1;shadow=0;dashed=0;shape=mxgraph.bootstrap.rrect;rSize=5;strokeColor=none;strokeWidth=1;fillColor=#660000;fontColor=#ffffff;whiteSpace=wrap;align=left;verticalAlign=middle;fontStyle=0;fontSize=12;spacingLeft=10;spacingRight=20;" vertex="1" parent="1">
                    <mxGeometry x="1220" y="3600" width="125" height="25" as="geometry"/>
                </mxCell>
                <mxCell id="140" value="" style="shape=triangle;direction=south;fillColor=#ffffff;strokeColor=none;perimeter=none;" vertex="1" parent="139">
                    <mxGeometry x="1" y="0.5" width="10" height="5" relative="1" as="geometry">
                        <mxPoint x="-17" y="-2.5" as="offset"/>
                    </mxGeometry>
                </mxCell>
                <mxCell id="141" value="&lt;font style=&quot;font-size: 10px;&quot;&gt;DG&lt;/font&gt;" style="rounded=1;whiteSpace=wrap;html=1;arcSize=50;strokeColor=none;strokeWidth=1;fillColor=#4C0099;fontColor=#FFFFFF;whiteSpace=wrap;align=left;verticalAlign=middle;spacingLeft=0;fontStyle=1;fontSize=10;spacing=10;" vertex="1" parent="1">
                    <mxGeometry x="1560" y="3667" width="33" height="17" as="geometry"/>
                </mxCell>
                <mxCell id="142" value="&lt;font style=&quot;font-size: 10px;&quot;&gt;LM&lt;/font&gt;" style="rounded=1;whiteSpace=wrap;html=1;arcSize=50;strokeColor=none;strokeWidth=1;fillColor=#4D4D4D;fontColor=#FFFFFF;whiteSpace=wrap;align=left;verticalAlign=middle;spacingLeft=0;fontStyle=1;fontSize=10;spacing=10;" vertex="1" parent="1">
                    <mxGeometry x="1558.5" y="3698.5" width="33" height="17" as="geometry"/>
                </mxCell>
                <mxCell id="143" value="" style="shape=table;startSize=0;container=1;collapsible=0;childLayout=tableLayout;fontSize=13;align=left;spacingLeft=5;spacing=0;" vertex="1" parent="1">
                    <mxGeometry x="1180" y="3830" width="920" height="120" as="geometry"/>
                </mxCell>
                <mxCell id="144" value="" style="shape=tableRow;horizontal=0;startSize=0;swimlaneHead=0;swimlaneBody=0;strokeColor=inherit;top=0;left=0;bottom=0;right=0;collapsible=0;dropTarget=0;fillColor=none;points=[[0,0.5],[1,0.5]];portConstraint=eastwest;fontSize=13;align=left;spacingLeft=5;spacing=0;" vertex="1" parent="143">
                    <mxGeometry width="920" height="30" as="geometry"/>
                </mxCell>
                <mxCell id="145" style="shape=partialRectangle;html=1;whiteSpace=wrap;connectable=0;strokeColor=inherit;overflow=hidden;fillColor=#660000;top=0;left=0;bottom=0;right=0;pointerEvents=1;fontSize=13;align=left;spacingLeft=25;spacing=0;fontColor=#FFFFFF;fontStyle=1" vertex="1" parent="144">
                    <mxGeometry width="25" height="30" as="geometry">
                        <mxRectangle width="25" height="30" as="alternateBounds"/>
                    </mxGeometry>
                </mxCell>
                <mxCell id="146" value="Template" style="shape=partialRectangle;html=1;whiteSpace=wrap;connectable=0;strokeColor=inherit;overflow=hidden;fillColor=#660000;top=0;left=0;bottom=0;right=0;pointerEvents=1;fontSize=13;align=left;spacingLeft=25;spacing=0;fontColor=#FFFFFF;fontStyle=1" vertex="1" parent="144">
                    <mxGeometry x="25" width="145" height="30" as="geometry">
                        <mxRectangle width="145" height="30" as="alternateBounds"/>
                    </mxGeometry>
                </mxCell>
                <mxCell id="147" value="Type" style="shape=partialRectangle;html=1;whiteSpace=wrap;connectable=0;strokeColor=inherit;overflow=hidden;fillColor=#660000;top=0;left=0;bottom=0;right=0;pointerEvents=1;fontSize=13;align=left;spacingLeft=5;spacing=0;fontColor=#FFFFFF;fontStyle=1" vertex="1" parent="144">
                    <mxGeometry x="170" width="70" height="30" as="geometry">
                        <mxRectangle width="70" height="30" as="alternateBounds"/>
                    </mxGeometry>
                </mxCell>
                <mxCell id="172" value="Description" style="shape=partialRectangle;html=1;whiteSpace=wrap;connectable=0;strokeColor=inherit;overflow=hidden;fillColor=#660000;top=0;left=0;bottom=0;right=0;pointerEvents=1;fontSize=13;align=left;spacingLeft=5;spacing=0;fontColor=#FFFFFF;fontStyle=1" vertex="1" parent="144">
                    <mxGeometry x="240" width="310" height="30" as="geometry">
                        <mxRectangle width="310" height="30" as="alternateBounds"/>
                    </mxGeometry>
                </mxCell>
                <mxCell id="148" value="Shared With" style="shape=partialRectangle;html=1;whiteSpace=wrap;connectable=0;strokeColor=inherit;overflow=hidden;fillColor=#660000;top=0;left=0;bottom=0;right=0;pointerEvents=1;fontSize=13;align=left;spacingLeft=5;spacing=0;fontColor=#FFFFFF;fontStyle=1" vertex="1" parent="144">
                    <mxGeometry x="550" width="110" height="30" as="geometry">
                        <mxRectangle width="110" height="30" as="alternateBounds"/>
                    </mxGeometry>
                </mxCell>
                <mxCell id="149" value="Created" style="shape=partialRectangle;html=1;whiteSpace=wrap;connectable=0;strokeColor=inherit;overflow=hidden;fillColor=#660000;top=0;left=0;bottom=0;right=0;pointerEvents=1;fontSize=13;align=left;spacingLeft=5;spacing=0;fontColor=#FFFFFF;fontStyle=1" vertex="1" parent="144">
                    <mxGeometry x="660" width="140" height="30" as="geometry">
                        <mxRectangle width="140" height="30" as="alternateBounds"/>
                    </mxGeometry>
                </mxCell>
                <mxCell id="150" value="Updated" style="shape=partialRectangle;html=1;whiteSpace=wrap;connectable=0;strokeColor=inherit;overflow=hidden;fillColor=#660000;top=0;left=0;bottom=0;right=0;pointerEvents=1;fontSize=13;align=left;spacingLeft=5;spacing=0;fontColor=#FFFFFF;fontStyle=1" vertex="1" parent="144">
                    <mxGeometry x="800" width="120" height="30" as="geometry">
                        <mxRectangle width="120" height="30" as="alternateBounds"/>
                    </mxGeometry>
                </mxCell>
                <mxCell id="151" value="" style="shape=tableRow;horizontal=0;startSize=0;swimlaneHead=0;swimlaneBody=0;strokeColor=inherit;top=0;left=0;bottom=0;right=0;collapsible=0;dropTarget=0;fillColor=none;points=[[0,0.5],[1,0.5]];portConstraint=eastwest;fontSize=13;align=left;spacingLeft=5;spacing=0;" vertex="1" parent="143">
                    <mxGeometry y="30" width="920" height="30" as="geometry"/>
                </mxCell>
                <mxCell id="152" style="shape=partialRectangle;html=1;whiteSpace=wrap;connectable=0;strokeColor=inherit;overflow=hidden;fillColor=none;top=0;left=0;bottom=0;right=0;pointerEvents=1;fontSize=13;align=left;spacingLeft=64;spacing=0;" vertex="1" parent="151">
                    <mxGeometry width="25" height="30" as="geometry">
                        <mxRectangle width="25" height="30" as="alternateBounds"/>
                    </mxGeometry>
                </mxCell>
                <mxCell id="153" value="RFP Template" style="shape=partialRectangle;html=1;whiteSpace=wrap;connectable=0;strokeColor=inherit;overflow=hidden;fillColor=none;top=0;left=0;bottom=0;right=0;pointerEvents=1;fontSize=13;align=left;spacingLeft=15;spacing=0;" vertex="1" parent="151">
                    <mxGeometry x="25" width="145" height="30" as="geometry">
                        <mxRectangle width="145" height="30" as="alternateBounds"/>
                    </mxGeometry>
                </mxCell>
                <mxCell id="154" value=".dotx" style="shape=partialRectangle;html=1;whiteSpace=wrap;connectable=0;strokeColor=inherit;overflow=hidden;fillColor=none;top=0;left=0;bottom=0;right=0;pointerEvents=1;fontSize=13;align=left;spacingLeft=5;spacing=0;" vertex="1" parent="151">
                    <mxGeometry x="170" width="70" height="30" as="geometry">
                        <mxRectangle width="70" height="30" as="alternateBounds"/>
                    </mxGeometry>
                </mxCell>
                <mxCell id="173" value="Finished RFP Template" style="shape=partialRectangle;html=1;whiteSpace=wrap;connectable=0;strokeColor=inherit;overflow=hidden;fillColor=none;top=0;left=0;bottom=0;right=0;pointerEvents=1;fontSize=13;align=left;spacingLeft=5;spacing=0;" vertex="1" parent="151">
                    <mxGeometry x="240" width="310" height="30" as="geometry">
                        <mxRectangle width="310" height="30" as="alternateBounds"/>
                    </mxGeometry>
                </mxCell>
                <mxCell id="155" style="shape=partialRectangle;html=1;whiteSpace=wrap;connectable=0;strokeColor=inherit;overflow=hidden;fillColor=none;top=0;left=0;bottom=0;right=0;pointerEvents=1;fontSize=13;align=left;spacingLeft=5;spacing=0;" vertex="1" parent="151">
                    <mxGeometry x="550" width="110" height="30" as="geometry">
                        <mxRectangle width="110" height="30" as="alternateBounds"/>
                    </mxGeometry>
                </mxCell>
                <mxCell id="156" value="dd-mm-yy hh:mm" style="shape=partialRectangle;html=1;whiteSpace=wrap;connectable=0;strokeColor=inherit;overflow=hidden;fillColor=none;top=0;left=0;bottom=0;right=0;pointerEvents=1;fontSize=13;align=left;spacingLeft=5;spacing=0;" vertex="1" parent="151">
                    <mxGeometry x="660" width="140" height="30" as="geometry">
                        <mxRectangle width="140" height="30" as="alternateBounds"/>
                    </mxGeometry>
                </mxCell>
                <mxCell id="157" value="dd-mm-yy hh:mm" style="shape=partialRectangle;html=1;whiteSpace=wrap;connectable=0;strokeColor=inherit;overflow=hidden;fillColor=none;top=0;left=0;bottom=0;right=0;pointerEvents=1;fontSize=13;align=left;spacingLeft=5;spacing=0;" vertex="1" parent="151">
                    <mxGeometry x="800" width="120" height="30" as="geometry">
                        <mxRectangle width="120" height="30" as="alternateBounds"/>
                    </mxGeometry>
                </mxCell>
                <mxCell id="158" value="" style="shape=tableRow;horizontal=0;startSize=0;swimlaneHead=0;swimlaneBody=0;strokeColor=inherit;top=0;left=0;bottom=0;right=0;collapsible=0;dropTarget=0;fillColor=none;points=[[0,0.5],[1,0.5]];portConstraint=eastwest;fontSize=13;align=left;spacingLeft=5;spacing=0;" vertex="1" parent="143">
                    <mxGeometry y="60" width="920" height="30" as="geometry"/>
                </mxCell>
                <mxCell id="159" style="shape=partialRectangle;html=1;whiteSpace=wrap;connectable=0;strokeColor=inherit;overflow=hidden;fillColor=none;top=0;left=0;bottom=0;right=0;pointerEvents=1;fontSize=13;align=left;spacingLeft=64;spacing=0;" vertex="1" parent="158">
                    <mxGeometry width="25" height="30" as="geometry">
                        <mxRectangle width="25" height="30" as="alternateBounds"/>
                    </mxGeometry>
                </mxCell>
                <mxCell id="160" value="corp PPT" style="shape=partialRectangle;html=1;whiteSpace=wrap;connectable=0;strokeColor=inherit;overflow=hidden;fillColor=none;top=0;left=0;bottom=0;right=0;pointerEvents=1;fontSize=13;align=left;spacingLeft=15;spacing=0;" vertex="1" parent="158">
                    <mxGeometry x="25" width="145" height="30" as="geometry">
                        <mxRectangle width="145" height="30" as="alternateBounds"/>
                    </mxGeometry>
                </mxCell>
                <mxCell id="161" value=".potx" style="shape=partialRectangle;html=1;whiteSpace=wrap;connectable=0;strokeColor=inherit;overflow=hidden;fillColor=none;top=0;left=0;bottom=0;right=0;pointerEvents=1;fontSize=13;align=left;spacingLeft=5;spacing=0;" vertex="1" parent="158">
                    <mxGeometry x="170" width="70" height="30" as="geometry">
                        <mxRectangle width="70" height="30" as="alternateBounds"/>
                    </mxGeometry>
                </mxCell>
                <mxCell id="174" value="Kwik-E-Mart Corporate" style="shape=partialRectangle;html=1;whiteSpace=wrap;connectable=0;strokeColor=inherit;overflow=hidden;fillColor=none;top=0;left=0;bottom=0;right=0;pointerEvents=1;fontSize=13;align=left;spacingLeft=5;spacing=0;" vertex="1" parent="158">
                    <mxGeometry x="240" width="310" height="30" as="geometry">
                        <mxRectangle width="310" height="30" as="alternateBounds"/>
                    </mxGeometry>
                </mxCell>
                <mxCell id="162" style="shape=partialRectangle;html=1;whiteSpace=wrap;connectable=0;strokeColor=inherit;overflow=hidden;fillColor=none;top=0;left=0;bottom=0;right=0;pointerEvents=1;fontSize=13;align=left;spacingLeft=5;spacing=0;" vertex="1" parent="158">
                    <mxGeometry x="550" width="110" height="30" as="geometry">
                        <mxRectangle width="110" height="30" as="alternateBounds"/>
                    </mxGeometry>
                </mxCell>
                <mxCell id="163" value="dd-mm-yy hh:mm" style="shape=partialRectangle;html=1;whiteSpace=wrap;connectable=0;strokeColor=inherit;overflow=hidden;fillColor=none;top=0;left=0;bottom=0;right=0;pointerEvents=1;fontSize=13;align=left;spacingLeft=5;spacing=0;" vertex="1" parent="158">
                    <mxGeometry x="660" width="140" height="30" as="geometry">
                        <mxRectangle width="140" height="30" as="alternateBounds"/>
                    </mxGeometry>
                </mxCell>
                <mxCell id="164" value="dd-mm-yy hh:mm" style="shape=partialRectangle;html=1;whiteSpace=wrap;connectable=0;strokeColor=inherit;overflow=hidden;fillColor=none;top=0;left=0;bottom=0;right=0;pointerEvents=1;fontSize=13;align=left;spacingLeft=5;spacing=0;" vertex="1" parent="158">
                    <mxGeometry x="800" width="120" height="30" as="geometry">
                        <mxRectangle width="120" height="30" as="alternateBounds"/>
                    </mxGeometry>
                </mxCell>
                <mxCell id="175" style="shape=tableRow;horizontal=0;startSize=0;swimlaneHead=0;swimlaneBody=0;strokeColor=inherit;top=0;left=0;bottom=0;right=0;collapsible=0;dropTarget=0;fillColor=none;points=[[0,0.5],[1,0.5]];portConstraint=eastwest;fontSize=13;align=left;spacingLeft=5;spacing=0;" vertex="1" parent="143">
                    <mxGeometry y="90" width="920" height="30" as="geometry"/>
                </mxCell>
                <mxCell id="176" style="shape=partialRectangle;html=1;whiteSpace=wrap;connectable=0;strokeColor=inherit;overflow=hidden;fillColor=none;top=0;left=0;bottom=0;right=0;pointerEvents=1;fontSize=13;align=left;spacingLeft=64;spacing=0;" vertex="1" parent="175">
                    <mxGeometry width="25" height="30" as="geometry">
                        <mxRectangle width="25" height="30" as="alternateBounds"/>
                    </mxGeometry>
                </mxCell>
                <mxCell id="177" value="RFP Draft" style="shape=partialRectangle;html=1;whiteSpace=wrap;connectable=0;strokeColor=inherit;overflow=hidden;fillColor=none;top=0;left=0;bottom=0;right=0;pointerEvents=1;fontSize=13;align=left;spacingLeft=15;spacing=0;" vertex="1" parent="175">
                    <mxGeometry x="25" width="145" height="30" as="geometry">
                        <mxRectangle width="145" height="30" as="alternateBounds"/>
                    </mxGeometry>
                </mxCell>
                <mxCell id="178" value=".dotx" style="shape=partialRectangle;html=1;whiteSpace=wrap;connectable=0;strokeColor=inherit;overflow=hidden;fillColor=none;top=0;left=0;bottom=0;right=0;pointerEvents=1;fontSize=13;align=left;spacingLeft=5;spacing=0;" vertex="1" parent="175">
                    <mxGeometry x="170" width="70" height="30" as="geometry">
                        <mxRectangle width="70" height="30" as="alternateBounds"/>
                    </mxGeometry>
                </mxCell>
                <mxCell id="179" value="Draft Watermarked" style="shape=partialRectangle;html=1;whiteSpace=wrap;connectable=0;strokeColor=inherit;overflow=hidden;fillColor=none;top=0;left=0;bottom=0;right=0;pointerEvents=1;fontSize=13;align=left;spacingLeft=5;spacing=0;" vertex="1" parent="175">
                    <mxGeometry x="240" width="310" height="30" as="geometry">
                        <mxRectangle width="310" height="30" as="alternateBounds"/>
                    </mxGeometry>
                </mxCell>
                <mxCell id="180" style="shape=partialRectangle;html=1;whiteSpace=wrap;connectable=0;strokeColor=inherit;overflow=hidden;fillColor=none;top=0;left=0;bottom=0;right=0;pointerEvents=1;fontSize=13;align=left;spacingLeft=5;spacing=0;" vertex="1" parent="175">
                    <mxGeometry x="550" width="110" height="30" as="geometry">
                        <mxRectangle width="110" height="30" as="alternateBounds"/>
                    </mxGeometry>
                </mxCell>
                <mxCell id="181" value="dd-mm-yy hh:mm" style="shape=partialRectangle;html=1;whiteSpace=wrap;connectable=0;strokeColor=inherit;overflow=hidden;fillColor=none;top=0;left=0;bottom=0;right=0;pointerEvents=1;fontSize=13;align=left;spacingLeft=5;spacing=0;" vertex="1" parent="175">
                    <mxGeometry x="660" width="140" height="30" as="geometry">
                        <mxRectangle width="140" height="30" as="alternateBounds"/>
                    </mxGeometry>
                </mxCell>
                <mxCell id="182" value="dd-mm-yy hh:mm" style="shape=partialRectangle;html=1;whiteSpace=wrap;connectable=0;strokeColor=inherit;overflow=hidden;fillColor=none;top=0;left=0;bottom=0;right=0;pointerEvents=1;fontSize=13;align=left;spacingLeft=5;spacing=0;" vertex="1" parent="175">
                    <mxGeometry x="800" width="120" height="30" as="geometry">
                        <mxRectangle width="120" height="30" as="alternateBounds"/>
                    </mxGeometry>
                </mxCell>
                <mxCell id="165" value="" style="rounded=0;whiteSpace=wrap;html=1;strokeColor=#660000;aspect=fixed;" vertex="1" parent="1">
                    <mxGeometry x="1187" y="3809" width="10" height="10" as="geometry"/>
                </mxCell>
                <mxCell id="166" value="" style="rounded=0;whiteSpace=wrap;html=1;strokeColor=#660000;aspect=fixed;" vertex="1" parent="1">
                    <mxGeometry x="1187" y="3870.5" width="10" height="10" as="geometry"/>
                </mxCell>
                <mxCell id="167" value="" style="rounded=0;whiteSpace=wrap;html=1;strokeColor=#660000;aspect=fixed;" vertex="1" parent="1">
                    <mxGeometry x="1187" y="3902" width="10" height="10" as="geometry"/>
                </mxCell>
                <mxCell id="168" value="Action" style="html=1;shadow=0;dashed=0;shape=mxgraph.bootstrap.rrect;rSize=5;strokeColor=none;strokeWidth=1;fillColor=#660000;fontColor=#ffffff;whiteSpace=wrap;align=left;verticalAlign=middle;fontStyle=0;fontSize=12;spacingLeft=10;spacingRight=20;" vertex="1" parent="1">
                    <mxGeometry x="1220" y="3800" width="125" height="25" as="geometry"/>
                </mxCell>
                <mxCell id="169" value="" style="shape=triangle;direction=south;fillColor=#ffffff;strokeColor=none;perimeter=none;" vertex="1" parent="168">
                    <mxGeometry x="1" y="0.5" width="10" height="5" relative="1" as="geometry">
                        <mxPoint x="-17" y="-2.5" as="offset"/>
                    </mxGeometry>
                </mxCell>
                <mxCell id="170" value="&lt;font style=&quot;font-size: 10px;&quot;&gt;DG&lt;/font&gt;" style="rounded=1;whiteSpace=wrap;html=1;arcSize=50;strokeColor=none;strokeWidth=1;fillColor=#4C0099;fontColor=#FFFFFF;whiteSpace=wrap;align=left;verticalAlign=middle;spacingLeft=0;fontStyle=1;fontSize=10;spacing=10;" vertex="1" parent="1">
                    <mxGeometry x="1753" y="3867" width="33" height="17" as="geometry"/>
                </mxCell>
                <mxCell id="171" value="&lt;font style=&quot;font-size: 10px;&quot;&gt;LM&lt;/font&gt;" style="rounded=1;whiteSpace=wrap;html=1;arcSize=50;strokeColor=none;strokeWidth=1;fillColor=#4D4D4D;fontColor=#FFFFFF;whiteSpace=wrap;align=left;verticalAlign=middle;spacingLeft=0;fontStyle=1;fontSize=10;spacing=10;" vertex="1" parent="1">
                    <mxGeometry x="1751.5" y="3898.5" width="33" height="17" as="geometry"/>
                </mxCell>
                <mxCell id="183" value="" style="rounded=0;whiteSpace=wrap;html=1;strokeColor=#660000;aspect=fixed;" vertex="1" parent="1">
                    <mxGeometry x="1187" y="3930" width="10" height="10" as="geometry"/>
                </mxCell>
                <mxCell id="185" value="" style="rounded=0;whiteSpace=wrap;html=1;fillStyle=cross-hatch;fillColor=#4D4D4D;" vertex="1" parent="1">
                    <mxGeometry x="1130" y="3390" width="1040" height="380" as="geometry"/>
                </mxCell>
            </root>
        </mxGraphModel>
    </diagram>
</mxfile>